Release info:

General
Format                                   : Matroska
Format version                           : Version 4 / Version 2
File size                                : 1.37 GiB
Duration                                 : 1h 31mn
Overall bit rate                         : 2 149 Kbps
Movie name                               : Hollow 2012 DVDRip English

Video
ID                                       : 1
Format                                   : MPEG-4 Visual
Format profile                           : Advanced Simple@L5
Format settings, BVOP                    : Yes
Format settings, QPel                    : Yes
Format settings, GMC                     : No warppoints
Format settings, Matrix                  : Default (H.263)
Codec ID                                 : V_MS/VFW/FOURCC / XVID
Codec ID/Hint                            : XviD
Duration                                 : 1h 31mn
Bit rate                                 : 1 658 Kbps
Width                                    : 720 pixels
Height                                   : 400 pixels
Display aspect ratio                     : 16:9
Frame rate mode                          : Constant
Frame rate                               : 25.000 fps
Color space                              : YUV
Chroma subsampling                       : 4:2:0
Bit depth                                : 8 bits
Scan type                                : Progressive
Compression mode                         : Lossy
Bits/(Pixel*Frame)                       : 0.230
Stream size                              : 1.05 GiB (77%)
Title                                    : Hollow 2012 DVDRip English
Language                                 : English
Default                                  : Yes
Forced                                   : No

Audio
ID                                       : 2
Format                                   : AC-3
Format/Info                              : Audio Coding 3
Mode extension                           : CM (complete main)
Format settings, Endianness              : Big
Codec ID                                 : A_AC3
Duration                                 : 1h 31mn
Bit rate mode                            : Constant
Bit rate                                 : 448 Kbps
Channel(s)                               : 6 channels
Channel positions                        : Front: L C R, Side: L R, LFE
Sampling rate                            : 48.0 KHz
Bit depth                                : 16 bits
Compression mode                         : Lossy
Stream size                              : 292 MiB (21%)
Title                                    : Hollow 2012 DVDRip English
Language                                 : English
Default                                  : Yes
Forced                                   : No



Source:
credit to original movie ripper CM8 (Thanks)

IMDB Info:

Directed by: Michael Axelgaard

Written by: Matthew Holt

Cast: Emily Plumtree, Sam Stockman, Matt Stokoe

Though many think of the British countryside as the setting for the novels of Jane Austen and the Bronte sisters, Hammer Films in particular has made good use of the crumbling old manors and remote locations to showcase the true creepiness of the British Isles...

 
http://www.imdb.com/news/ni37843273/

Screen Shot:
 
http://www.shotpix.com/images/18051368263413910918.png 
http://www.shotpix.com/images/21122691536207751405.png 
http://www.shotpix.com/images/03275917895228476308.png 
http://www.shotpix.com/images/06332953962588503382.png